HIERARCHY
ROOT RootJoint
{
    OFFSET   0.000000   0.000000   0.000000
    CHANNELS 6 Xposition Yposition Zposition Xrotation Yrotation Zrotation
    JOINT pelvis_lowerback
    {
        OFFSET   0.000000   0.093605   0.000000
        CHANNELS 3 Xrotation Yrotation Zrotation
        JOINT lowerback_torso
        {
            OFFSET   0.000000   0.100000   0.000000
            CHANNELS 3 Xrotation Yrotation Zrotation
            JOINT torso_head
            {
                OFFSET   0.000000   0.282350   0.000000
                CHANNELS 3 Xrotation Yrotation Zrotation
                End Site
                {
                    OFFSET   0.000000   0.192650   0.000000
                }
            }
            JOINT rTorso_Clavicle
            {
                OFFSET  -0.001000   0.157500   0.000000
                CHANNELS 3 Xrotation Yrotation Zrotation
                JOINT rShoulder
                {
                    OFFSET  -0.117647   0.000000   0.000000
                    CHANNELS 3 Xrotation Yrotation Zrotation
                    JOINT rElbow
                    {
                        OFFSET  -0.245000   0.000000   0.000000
                        CHANNELS 3 Xrotation Yrotation Zrotation
                        JOINT rWrist
                        {
                            OFFSET  -0.240000   0.000000   0.000000
                            CHANNELS 3 Xrotation Yrotation Zrotation
                            End Site
                            {
                                OFFSET  -0.116353  -0.002500   0.000000
                            }
                        }
                    }
                }
            }
            JOINT lTorso_Clavicle
            {
                OFFSET   0.001000   0.157500   0.000000
                CHANNELS 3 Xrotation Yrotation Zrotation
                JOINT lShoulder
                {
                    OFFSET   0.117647   0.000000   0.000000
                    CHANNELS 3 Xrotation Yrotation Zrotation
                    JOINT lElbow
                    {
                        OFFSET   0.245000   0.000000   0.000000
                        CHANNELS 3 Xrotation Yrotation Zrotation
                        JOINT lWrist
                        {
                            OFFSET   0.240000   0.000000   0.000000
                            CHANNELS 3 Xrotation Yrotation Zrotation
                            End Site
                            {
                                OFFSET   0.116353  -0.002500   0.000000
                            }
                        }
                    }
                }
            }
        }
    }
    JOINT rHip
    {
        OFFSET  -0.100000  -0.051395   0.000000
        CHANNELS 3 Xrotation Yrotation Zrotation
        JOINT rKnee
        {
            OFFSET   0.000000  -0.410000   0.000000
            CHANNELS 3 Xrotation Yrotation Zrotation
            JOINT rAnkle
            {
                OFFSET   0.000000  -0.390000   0.000000
                CHANNELS 3 Xrotation Yrotation Zrotation
                JOINT rToeJoint
                {
                    OFFSET   0.000000  -0.050000   0.130000
                    CHANNELS 3 Xrotation Yrotation Zrotation
                    End Site
                    {
                        OFFSET  -0.010000   0.002000   0.060000
                    }
                }
            }
        }
    }
    JOINT lHip
    {
        OFFSET   0.100000  -0.051395   0.000000
        CHANNELS 3 Xrotation Yrotation Zrotation
        JOINT lKnee
        {
            OFFSET   0.000000  -0.410000   0.000000
            CHANNELS 3 Xrotation Yrotation Zrotation
            JOINT lAnkle
            {
                OFFSET   0.000000  -0.390000   0.000000
                CHANNELS 3 Xrotation Yrotation Zrotation
                JOINT lToeJoint
                {
                    OFFSET   0.000000  -0.050000   0.130000
                    CHANNELS 3 Xrotation Yrotation Zrotation
                    End Site
                    {
                        OFFSET   0.010000   0.002000   0.060000
                    }
                }
            }
        }
    }
}
MOTION
Frames: 10
Frame Time:   0.008333
 -2.376719   0.925631   3.975860   0.000000   0.000000   0.000000   0.000000   0.000000   0.000000   0.000000   0.000000   0.000000   0.000000   0.000000   0.000000   0.000000   0.000000   0.000000   0.000000   0.000000   0.000000   0.000000   0.000000   0.000000   0.000000   0.000000   0.000000   0.000000   0.000000   0.000000   0.000000   0.000000   0.000000   0.000000   0.000000   0.000000   0.000000   0.000000   0.000000   0.000000   0.000000   0.000000   0.000000   0.000000   0.000000   0.000000   0.000000   0.000000   0.000000   0.000000   0.000000   0.000000   0.000000   0.000000   0.000000   0.000000   0.000000   0.000000   0.000000   0.000000   0.000000   0.000000   0.000000
 -2.377058   0.926411   3.975225   1.108600   0.001184  -0.294892  -1.301735   0.035314   0.209720   0.041845  -0.199649   0.122900  -0.182350   0.214384   0.149075   0.275050  -0.332884   0.626198   0.707431   0.296121   1.929528   0.019955   0.877492  -0.006460   0.356750  -0.331563  -3.334176   0.248286   0.357763  -0.753410   0.901649   0.166772  -1.888823   0.020428  -0.896152   0.007920   0.337031   0.079433   3.379088  -1.517370   0.321249   0.245183   0.702923   0.000324   0.002023  -0.383902  -0.185469   0.024932  -0.371150  -0.000078  -0.000469  -1.771875  -0.262171   0.523053   1.580843  -0.003217  -0.003412  -1.101476   0.009976  -0.082950   0.301246  -0.000381  -0.000638
 -2.377505   0.927698   3.974813   2.167836  -0.082025  -0.623519  -2.553587   0.088752   0.420827   0.023976  -0.371257   0.274706  -0.377577   0.417232   0.311615   0.542357  -0.633633   2.045240   1.385945   0.629241   4.496465   0.046004   1.724645  -0.010569   0.739838  -0.436252  -5.931065   0.499592   0.715486  -2.296546   1.788908   0.315735  -4.425763   0.046546  -1.743465   0.013266   0.711177   0.003977   6.026338  -2.960916   0.641883   0.436240   1.374095   0.001154   0.003128  -0.745473  -0.356049   0.048507  -0.753487  -0.000461  -0.000681  -3.433548  -0.539032   1.213270   3.183389  -0.007911  -0.007008  -2.126054   0.022555  -0.157907   0.558014  -0.000957  -0.001208
 -2.377972   0.929033   3.974606   3.163413  -0.214736  -0.935868  -3.753772   0.144651   0.614285  -0.020601  -0.519523   0.419992  -0.566960   0.605567   0.466983   0.800747  -0.899903   3.939647   2.032907   0.993418   7.484132   0.071166   2.516853  -0.012768   1.108315  -0.485607  -7.590891   0.747736   1.049592  -4.303634   2.664800   0.425613  -7.388223   0.071629  -2.530480   0.016660   1.071464  -0.082140   7.737446  -4.305967   0.941475   0.529635   1.999657   0.002261   0.003564  -1.084510  -0.516388   0.069104  -1.118203  -0.001046  -0.000689  -4.948657  -0.822625   1.982086   4.705414  -0.012826  -0.009828  -3.081410   0.037196  -0.226386   0.790487  -0.001567  -0.001651
 -2.378468   0.930068   3.974546   4.099930  -0.372619  -1.221067  -4.900553   0.196806   0.783082  -0.083757  -0.652719   0.538171  -0.747749   0.780458   0.616647   1.054651  -1.142126   6.100435   2.650672   1.388214  10.757359   0.092384   3.254355  -0.013687   1.457668  -0.523980  -8.531864   0.994866   1.361728  -6.609765   3.491764   0.485572 -10.489021   0.092329  -3.261863   0.018507   1.413756  -0.162138   8.660041  -5.560483   1.222279   0.532480   2.583613   0.003426   0.003627  -1.401995  -0.667466   0.086723  -1.461854  -0.001698  -0.000617  -6.333756  -1.110857   2.798213   6.138897  -0.017429  -0.011679  -3.973429   0.053071  -0.289375   0.997018  -0.002113  -0.001935
 -2.379010   0.930541   3.974585   4.980370  -0.542575  -1.479374  -5.991979   0.242674   0.924989  -0.159317  -0.775956   0.627441  -0.919098   0.943040   0.757914   1.306538  -1.366183   8.383715   3.239871   1.813447  14.220253   0.108569   3.939540  -0.013795   1.787081  -0.565896  -8.979235   1.241025   1.652377  -9.061194   4.267432   0.497402 -13.601262   0.107634  -3.942501   0.019324   1.737536  -0.237197   9.039101  -6.731529   1.487288   0.461319   3.129365   0.004510   0.003487  -1.699028  -0.809615   0.101730  -1.783270  -0.002324  -0.000525  -7.603373  -1.401794   3.645389   7.486212  -0.021435  -0.012643  -4.806416   0.069742  -0.347427   1.180520  -0.002555  -0.002080
 -2.379554   0.930251   3.974684   5.807294  -0.717306  -1.716760  -7.027027   0.281291   1.049587  -0.242001  -0.892128   0.708321  -1.080824   1.094335   0.884339   1.559416  -1.572701  10.752886   3.767488   2.244159  17.630896   0.119271   4.577418  -0.013233   2.099716  -0.604492  -9.013132   1.485518   1.920887 -11.560514   4.992575   0.465044 -16.658009   0.117617  -4.576968   0.019479   2.044519  -0.311507   9.056721  -7.825299   1.738581   0.330511   3.639546   0.005458   0.003241  -1.976779  -0.943106   0.114554  -2.082528  -0.002882  -0.000440  -8.769680  -1.693931   4.510107   8.751449  -0.024649  -0.012897  -5.584278   0.086904  -0.400914   1.343770  -0.002875  -0.002118
 -2.379851   0.928441   3.974576   6.173492  -0.839545  -1.907657  -7.424275   0.351477   1.191794  -0.321929  -0.970457   0.763312  -1.389194   1.088722   0.943220   1.785507  -1.564099  12.502024   4.332335   2.641734  20.683635   0.125583   5.281713  -0.014951   2.297236  -0.753840  -7.868441   1.585254   2.100562 -13.291187   5.377170   0.177421 -19.714982   0.118502  -5.151336   0.017973   2.234877  -0.283000   8.099990  -8.391564   1.864020   0.142389   4.187189   0.006334   0.002624  -2.075121  -1.171903   0.290360  -2.274390  -0.002709  -0.000046  -9.373123  -1.787783   5.251773   9.501291  -0.023508  -0.010434  -6.484221   0.233996  -0.429520   1.604269  -0.003486  -0.001597
 -2.380036   0.925359   3.974220   6.493621  -0.884466  -2.084135  -7.746523   0.411044   1.340164  -0.363333  -1.049644   0.811015  -1.675346   1.078899   0.997839   1.966022  -1.471616  13.898210   4.822576   3.090473  23.367581   0.125437   5.960497  -0.016519   2.508812  -0.815248  -6.867352   1.645528   2.177513 -14.701764   5.699003  -0.170837 -22.431941   0.115373  -5.714161   0.016716   2.425274  -0.352678   7.246241  -8.875604   1.974423  -0.051222   4.733675   0.006952   0.002397  -2.161208  -1.388385   0.453573  -2.422700  -0.002472   0.000110  -9.990950  -1.874430   5.916456  10.135367  -0.021642  -0.007963  -7.330436   0.373644  -0.454303   1.822410  -0.003679  -0.001041
 -2.380160   0.921151   3.973731   6.788952  -0.883864  -2.251725  -8.022127   0.471297   1.487343  -0.391421  -1.121187   0.856449  -1.938106   1.069783   1.051391   2.104785  -1.330116  15.041056   5.244982   3.564874  25.754588   0.121230   6.610380  -0.017700   2.728708  -0.794155  -6.140480   1.677584   2.195504 -15.874936   5.969745  -0.543143 -24.861487   0.109562  -6.255630   0.015470   2.623336  -0.504821   6.636274  -9.293587   2.080411  -0.234700   5.256211   0.007255   0.002374  -2.239975  -1.590583   0.605531  -2.552709  -0.002230   0.000159 -10.628546  -1.963317   6.520513  10.693788  -0.019545  -0.005813  -8.121530   0.504019  -0.475884   2.021006  -0.003675  -0.000550
